<svg width="163" height="32" viewBox="0 0 163 32" fill="none" xmlns="http://www.w3.org/2000/svg">
<rect width="32" height="32" rx="7.24528" fill="#7C3AED"/>
<path d="M16.2231 6L12 26.1101H16.2231L20.4462 6H16.2231Z" fill="#F9FAFB"/>
<path d="M54.1111 21.0494C54.1111 20.7284 54.0617 20.4404 53.963 20.1852C53.8724 19.9218 53.6996 19.6832 53.4445 19.4692C53.1893 19.2469 52.8313 19.0288 52.3704 18.8148C51.9095 18.6008 51.3128 18.3786 50.5803 18.1482C49.7654 17.8848 48.9918 17.5885 48.2593 17.2593C47.535 16.9301 46.893 16.5473 46.3333 16.1111C45.7819 15.6667 45.3457 15.1523 45.0247 14.5679C44.7119 13.9836 44.5556 13.3045 44.5556 12.5309C44.5556 11.7819 44.7202 11.1029 45.0494 10.4938C45.3786 9.87655 45.8395 9.3498 46.4321 8.91359C47.0247 8.46914 47.7243 8.12758 48.5309 7.88889C49.3457 7.65021 50.2387 7.53087 51.2099 7.53087C52.535 7.53087 53.6914 7.76955 54.679 8.24692C55.6667 8.72428 56.4321 9.37861 56.9753 10.2099C57.5268 11.0412 57.8025 11.9918 57.8025 13.0617H54.1235C54.1235 12.535 54.0124 12.0741 53.7901 11.679C53.5761 11.2757 53.2469 10.9589 52.8025 10.7284C52.3663 10.498 51.8148 10.3827 51.1482 10.3827C50.5062 10.3827 49.9712 10.4815 49.5432 10.679C49.1152 10.8683 48.7942 11.1276 48.5803 11.4568C48.3663 11.7778 48.2593 12.1399 48.2593 12.5432C48.2593 12.8477 48.3333 13.1235 48.4815 13.3704C48.6379 13.6173 48.8683 13.8478 49.1728 14.0617C49.4774 14.2757 49.8519 14.4774 50.2963 14.6667C50.7408 14.856 51.2552 15.0412 51.8395 15.2222C52.8189 15.5185 53.679 15.8519 54.4198 16.2222C55.1687 16.5926 55.7943 17.0083 56.2963 17.4692C56.7984 17.9301 57.177 18.4527 57.4321 19.0371C57.6873 19.6214 57.8148 20.284 57.8148 21.0247C57.8148 21.8066 57.6626 22.5062 57.358 23.1235C57.0535 23.7408 56.6132 24.2634 56.0371 24.6914C55.4609 25.1194 54.7737 25.4445 53.9753 25.6667C53.177 25.8889 52.284 26 51.2963 26C50.4074 26 49.5309 25.8848 48.6667 25.6544C47.8025 25.4157 47.0165 25.0576 46.3086 24.5803C45.6091 24.1029 45.0494 23.4939 44.6296 22.7531C44.2099 22.0124 44 21.1358 44 20.1235H47.7161C47.7161 20.6832 47.8025 21.1564 47.9753 21.5432C48.1482 21.9301 48.391 22.2428 48.7037 22.4815C49.0247 22.7202 49.4033 22.893 49.8395 23C50.284 23.107 50.7696 23.1605 51.2963 23.1605C51.9383 23.1605 52.465 23.07 52.8766 22.8889C53.2963 22.7078 53.605 22.4568 53.8025 22.1358C54.0082 21.8148 54.1111 21.4527 54.1111 21.0494Z" fill="#7C3AED"/>
<path d="M72.6791 22.7408V16.7901C72.6791 16.3622 72.6091 15.9959 72.4692 15.6914C72.3293 15.3786 72.1112 15.1358 71.8149 14.963C71.5268 14.7901 71.1523 14.7037 70.6914 14.7037C70.2963 14.7037 69.9548 14.7737 69.6667 14.9136C69.3786 15.0453 69.1564 15.2387 69 15.4938C68.8437 15.7408 68.7655 16.0329 68.7655 16.3704H65.2099C65.2099 15.8025 65.3416 15.2634 65.605 14.7531C65.8684 14.2428 66.2511 13.7943 66.7531 13.4074C67.2552 13.0124 67.8519 12.7037 68.5433 12.4815C69.2428 12.2593 70.0247 12.1482 70.8889 12.1482C71.926 12.1482 72.8478 12.321 73.6544 12.6667C74.461 13.0124 75.0947 13.5309 75.5556 14.2222C76.0247 14.9136 76.2593 15.7778 76.2593 16.8148V22.5309C76.2593 23.2634 76.3046 23.8642 76.3951 24.3334C76.4857 24.7943 76.6173 25.1976 76.7902 25.5432V25.7531H73.1976C73.0247 25.391 72.8931 24.9383 72.8025 24.3951C72.7202 23.8437 72.6791 23.2922 72.6791 22.7408ZM73.1482 17.6173L73.1729 19.6297H71.1852C70.7161 19.6297 70.3087 19.6832 69.963 19.7901C69.6173 19.8971 69.3334 20.0494 69.1112 20.2469C68.8889 20.4362 68.7243 20.6585 68.6173 20.9136C68.5186 21.1688 68.4692 21.4486 68.4692 21.7531C68.4692 22.0576 68.5391 22.3334 68.6791 22.5803C68.819 22.819 69.0206 23.0083 69.284 23.1482C69.5474 23.2799 69.856 23.3457 70.2099 23.3457C70.7449 23.3457 71.2099 23.2387 71.605 23.0247C72.0001 22.8107 72.3046 22.5474 72.5186 22.2346C72.7408 21.9218 72.856 21.6255 72.8643 21.3457L73.8025 22.8519C73.6708 23.1893 73.4898 23.5391 73.2593 23.9013C73.0371 24.2634 72.7531 24.605 72.4075 24.926C72.0618 25.2387 71.6461 25.498 71.1605 25.7037C70.6749 25.9013 70.0988 26 69.4321 26C68.5844 26 67.8149 25.8313 67.1235 25.4939C66.4404 25.1482 65.8972 24.6749 65.4939 24.0741C65.0988 23.4651 64.9013 22.7737 64.9013 22C64.9013 21.3004 65.033 20.679 65.2963 20.1358C65.5597 19.5926 65.9465 19.1358 66.4568 18.7655C66.9754 18.3869 67.6214 18.1029 68.3951 17.9136C69.1688 17.7161 70.0659 17.6173 71.0865 17.6173H73.1482Z" fill="#7C3AED"/>
<path d="M86.2223 22.0618C86.2223 21.8066 86.1482 21.5762 86.0001 21.3704C85.8519 21.1646 85.5762 20.9753 85.1729 20.8025C84.7779 20.6214 84.2058 20.4568 83.4569 20.3087C82.782 20.1605 82.1523 19.9753 81.568 19.7531C80.9918 19.5227 80.4898 19.2469 80.0618 18.9259C79.642 18.605 79.3128 18.2264 79.0741 17.7901C78.8355 17.3457 78.7161 16.8395 78.7161 16.2716C78.7161 15.712 78.8355 15.1852 79.0741 14.6914C79.3211 14.1975 79.6708 13.7613 80.1235 13.3827C80.5844 12.9959 81.1441 12.6955 81.8025 12.4815C82.4692 12.2593 83.2182 12.1482 84.0495 12.1482C85.21 12.1482 86.2058 12.3333 87.0371 12.7037C87.8766 13.0741 88.5186 13.5844 88.963 14.2346C89.4157 14.8766 89.6421 15.6091 89.6421 16.4321H86.0865C86.0865 16.0864 86.0124 15.7778 85.8643 15.5062C85.7244 15.2264 85.5021 15.0082 85.1976 14.8519C84.9013 14.6873 84.5145 14.605 84.0371 14.605C83.642 14.605 83.3005 14.6749 83.0124 14.8148C82.7243 14.9465 82.5021 15.1276 82.3457 15.358C82.1976 15.5803 82.1235 15.8272 82.1235 16.0988C82.1235 16.3045 82.1647 16.4897 82.247 16.6543C82.3375 16.8107 82.4816 16.9548 82.6791 17.0864C82.8766 17.2181 83.1318 17.3416 83.4445 17.4568C83.7655 17.5638 84.1606 17.6626 84.6297 17.7531C85.5927 17.9506 86.4528 18.2099 87.21 18.5309C87.9672 18.8436 88.568 19.2716 89.0124 19.8148C89.4569 20.3498 89.6791 21.0535 89.6791 21.926C89.6791 22.5185 89.5474 23.0618 89.284 23.5556C89.0207 24.0494 88.6421 24.4815 88.1482 24.8519C87.6544 25.214 87.0618 25.498 86.3704 25.7037C85.6873 25.9013 84.9178 26 84.0618 26C82.819 26 81.7655 25.7778 80.9013 25.3334C80.0453 24.8889 79.3951 24.3251 78.9507 23.642C78.5145 22.9506 78.2964 22.2428 78.2964 21.5185H81.6667C81.6832 22.0041 81.8067 22.3951 82.0371 22.6914C82.2758 22.9877 82.5762 23.2017 82.9383 23.3334C83.3087 23.4651 83.7079 23.5309 84.1359 23.5309C84.5968 23.5309 84.9795 23.4692 85.284 23.3457C85.5886 23.214 85.819 23.0412 85.9754 22.8272C86.14 22.605 86.2223 22.3498 86.2223 22.0618Z" fill="#7C3AED"/>
<path d="M95.4569 6.79012V25.7531H91.9013V6.79012H95.4569ZM94.9507 18.605H93.9754C93.9836 17.6749 94.1071 16.8189 94.3458 16.0371C94.5845 15.2469 94.926 14.5638 95.3705 13.9877C95.8149 13.4033 96.3458 12.9506 96.9631 12.6296C97.5886 12.3087 98.2799 12.1482 99.0371 12.1482C99.6956 12.1482 100.292 12.2428 100.827 12.4321C101.37 12.6132 101.835 12.9095 102.222 13.321C102.617 13.7243 102.922 14.2552 103.136 14.9136C103.35 15.572 103.457 16.3704 103.457 17.3087V25.7531H99.8766V17.284C99.8766 16.6914 99.7902 16.2264 99.6174 15.8889C99.4528 15.5432 99.21 15.3004 98.889 15.1605C98.5762 15.0124 98.1894 14.9383 97.7285 14.9383C97.2182 14.9383 96.782 15.0329 96.4198 15.2222C96.0659 15.4115 95.782 15.6749 95.568 16.0124C95.354 16.3416 95.1976 16.7284 95.0989 17.1729C95.0001 17.6173 94.9507 18.0947 94.9507 18.605Z" fill="#7C3AED"/>
<path d="M116.803 19.7901H120.494C120.42 21 120.087 22.0741 119.494 23.0124C118.91 23.9506 118.091 24.6832 117.037 25.2099C115.992 25.7367 114.733 26 113.259 26C112.107 26 111.074 25.8025 110.161 25.4074C109.247 25.0042 108.465 24.428 107.815 23.679C107.173 22.9301 106.683 22.0247 106.346 20.963C106.008 19.9013 105.84 18.712 105.84 17.3951V16.1482C105.84 14.8313 106.012 13.642 106.358 12.5803C106.712 11.5103 107.214 10.6008 107.864 9.85186C108.523 9.10289 109.309 8.52675 110.222 8.12346C111.136 7.72017 112.157 7.51852 113.284 7.51852C114.782 7.51852 116.045 7.79013 117.074 8.33334C118.111 8.87655 118.914 9.62552 119.482 10.5803C120.058 11.535 120.403 12.6214 120.519 13.8395H116.815C116.774 13.1152 116.63 12.5021 116.383 12C116.136 11.4897 115.761 11.107 115.259 10.8519C114.766 10.5885 114.107 10.4568 113.284 10.4568C112.667 10.4568 112.128 10.572 111.667 10.8025C111.206 11.0329 110.819 11.3827 110.506 11.8519C110.194 12.321 109.959 12.9136 109.803 13.6296C109.654 14.3375 109.58 15.1687 109.58 16.1235V17.3951C109.58 18.3251 109.65 19.1441 109.79 19.8519C109.93 20.5515 110.144 21.1441 110.432 21.6297C110.729 22.107 111.107 22.4692 111.568 22.7161C112.037 22.9548 112.601 23.0741 113.259 23.0741C114.033 23.0741 114.671 22.9506 115.173 22.7037C115.675 22.4568 116.058 22.0906 116.321 21.605C116.593 21.1194 116.753 20.5144 116.803 19.7901Z" fill="#7C3AED"/>
<path d="M122.136 19.2099V18.9506C122.136 17.9712 122.276 17.07 122.556 16.2469C122.836 15.4157 123.243 14.6955 123.778 14.0864C124.313 13.4774 124.971 13.0041 125.753 12.6667C126.535 12.321 127.432 12.1482 128.445 12.1482C129.457 12.1482 130.358 12.321 131.148 12.6667C131.938 13.0041 132.601 13.4774 133.136 14.0864C133.679 14.6955 134.091 15.4157 134.371 16.2469C134.65 17.07 134.79 17.9712 134.79 18.9506V19.2099C134.79 20.1811 134.65 21.0823 134.371 21.9136C134.091 22.7367 133.679 23.4568 133.136 24.0741C132.601 24.6832 131.943 25.1564 131.161 25.4939C130.379 25.8313 129.482 26 128.469 26C127.457 26 126.556 25.8313 125.766 25.4939C124.984 25.1564 124.321 24.6832 123.778 24.0741C123.243 23.4568 122.836 22.7367 122.556 21.9136C122.276 21.0823 122.136 20.1811 122.136 19.2099ZM125.692 18.9506V19.2099C125.692 19.7696 125.741 20.2922 125.84 20.7778C125.938 21.2634 126.095 21.6914 126.309 22.0618C126.531 22.4239 126.819 22.7078 127.173 22.9136C127.527 23.1194 127.959 23.2223 128.469 23.2223C128.963 23.2223 129.387 23.1194 129.741 22.9136C130.095 22.7078 130.379 22.4239 130.593 22.0618C130.807 21.6914 130.963 21.2634 131.062 20.7778C131.169 20.2922 131.222 19.7696 131.222 19.2099V18.9506C131.222 18.4074 131.169 17.8971 131.062 17.4198C130.963 16.9342 130.803 16.5062 130.58 16.1358C130.366 15.7572 130.082 15.4609 129.729 15.2469C129.375 15.0329 128.947 14.9259 128.445 14.9259C127.943 14.9259 127.515 15.0329 127.161 15.2469C126.815 15.4609 126.531 15.7572 126.309 16.1358C126.095 16.5062 125.938 16.9342 125.84 17.4198C125.741 17.8971 125.692 18.4074 125.692 18.9506Z" fill="#7C3AED"/>
<path d="M144.864 22.8395V6.79012H148.445V25.7531H145.222L144.864 22.8395ZM136.42 19.2346V18.9753C136.42 17.9548 136.535 17.0288 136.766 16.1975C136.996 15.358 137.334 14.6379 137.778 14.0371C138.222 13.4362 138.77 12.9712 139.42 12.642C140.07 12.3128 140.811 12.1482 141.642 12.1482C142.424 12.1482 143.107 12.3128 143.692 12.642C144.284 12.9712 144.786 13.4403 145.198 14.0494C145.617 14.6502 145.955 15.3622 146.21 16.1852C146.465 17 146.65 17.893 146.766 18.8642V19.4321C146.65 20.3622 146.465 21.2264 146.21 22.0247C145.955 22.8231 145.617 23.5227 145.198 24.1235C144.786 24.7161 144.284 25.177 143.692 25.5062C143.099 25.8354 142.408 26 141.617 26C140.786 26 140.045 25.8313 139.395 25.4939C138.753 25.1564 138.21 24.6832 137.766 24.0741C137.329 23.4651 136.996 22.749 136.766 21.926C136.535 21.1029 136.42 20.2058 136.42 19.2346ZM139.975 18.9753V19.2346C139.975 19.786 140.017 20.3004 140.099 20.7778C140.189 21.2552 140.334 21.679 140.531 22.0494C140.737 22.4116 141 22.6955 141.321 22.9013C141.65 23.0988 142.05 23.1976 142.519 23.1976C143.128 23.1976 143.63 23.0618 144.025 22.7902C144.42 22.5103 144.72 22.1276 144.926 21.642C145.14 21.1564 145.264 20.5967 145.296 19.963V18.3457C145.272 17.8272 145.198 17.3622 145.074 16.9506C144.959 16.5309 144.786 16.1729 144.556 15.8766C144.334 15.5803 144.054 15.3498 143.716 15.1852C143.387 15.0206 142.996 14.9383 142.543 14.9383C142.082 14.9383 141.687 15.0453 141.358 15.2593C141.029 15.465 140.761 15.749 140.556 16.1111C140.358 16.4733 140.21 16.9013 140.111 17.3951C140.021 17.8807 139.975 18.4074 139.975 18.9753Z" fill="#7C3AED"/>
<path d="M157.371 26C156.334 26 155.403 25.8354 154.58 25.5062C153.757 25.1688 153.058 24.7037 152.482 24.1111C151.914 23.5186 151.478 22.8313 151.173 22.0494C150.869 21.2593 150.716 20.4198 150.716 19.5309V19.0371C150.716 18.0247 150.86 17.0988 151.148 16.2593C151.436 15.4198 151.848 14.6914 152.383 14.0741C152.926 13.4568 153.585 12.9836 154.358 12.6543C155.132 12.3169 156.004 12.1482 156.976 12.1482C157.922 12.1482 158.762 12.3045 159.494 12.6173C160.227 12.9301 160.84 13.3745 161.334 13.9506C161.836 14.5268 162.214 15.2181 162.469 16.0247C162.724 16.8231 162.852 17.712 162.852 18.6914V20.1729H152.235V17.8025H159.358V17.5309C159.358 17.0371 159.268 16.5967 159.087 16.2099C158.914 15.8148 158.65 15.5021 158.297 15.2716C157.943 15.0412 157.49 14.9259 156.938 14.9259C156.469 14.9259 156.066 15.0288 155.729 15.2346C155.391 15.4403 155.115 15.7284 154.901 16.0988C154.696 16.4692 154.539 16.9054 154.432 17.4074C154.334 17.9013 154.284 18.4445 154.284 19.0371V19.5309C154.284 20.0659 154.358 20.5597 154.506 21.0124C154.663 21.465 154.881 21.856 155.161 22.1852C155.449 22.5144 155.794 22.7696 156.198 22.9506C156.609 23.1317 157.074 23.2223 157.593 23.2223C158.235 23.2223 158.831 23.0988 159.383 22.8519C159.943 22.5967 160.424 22.214 160.827 21.7037L162.556 23.5803C162.276 23.9836 161.893 24.3704 161.408 24.7408C160.93 25.1111 160.354 25.4157 159.679 25.6544C159.004 25.8848 158.235 26 157.371 26Z" fill="#7C3AED"/>
<path d="M61.9136 6L57.7655 25.7531H61.9136L66.0618 6H61.9136Z" fill="#7C3AED"/>
</svg>
